<svg width="100" height="57" viewBox="0 0 100 57" fill="none" xmlns="http://www.w3.org/2000/svg">
<path d="M52.9155 26.9935L52.8598 18.7614L48.9417 25.3669H46.2658L42.3477 19.0459V26.9935H36.8042V8.93359H41.8038L47.681 18.5573L53.4037 8.93359H58.4033L58.4527 26.9935H52.9155Z" fill="white"/>
<path d="M76.3909 22.4043V26.9935H61.3921V8.93359H76.0572V13.529H67.3681V15.6442H75.0004V20.0293H67.3681V22.4043H76.3909Z" fill="white"/>
<path d="M78.7373 8.93359H87.6303C89.6404 8.93359 91.414 9.3016 92.9513 10.0345C94.487 10.7643 95.6798 11.8096 96.5295 13.1702C97.3824 14.5278 97.8088 16.1251 97.8088 17.9635C97.8088 19.8035 97.3824 21.4023 96.5295 22.763C95.6798 24.1206 94.487 25.1659 92.9513 25.8988C91.414 26.6286 89.6404 26.9935 87.6303 26.9935H78.7373V8.93359ZM87.3708 22.2497C88.6763 22.2497 89.7207 21.877 90.504 21.1302C91.2858 20.3803 91.6782 19.3242 91.6782 17.9635C91.6782 16.6075 91.2858 15.5561 90.504 14.8092C89.7207 14.0593 88.6763 13.6836 87.3708 13.6836H84.8184V22.2497H87.3708Z" fill="white"/>
<path d="M36.8042 30.7778H42.8853V48.8377H36.8042V30.7778Z" fill="white"/>
<path d="M55.1569 49.2521C53.2488 49.2521 51.5292 48.8516 49.9966 48.0522C48.4671 47.2529 47.2681 46.1349 46.3999 44.7C45.5347 43.262 45.1021 41.6308 45.1021 39.8078C45.1021 37.9863 45.5347 36.3566 46.3999 34.9217C47.2681 33.4837 48.4671 32.3658 49.9966 31.5695C51.5292 30.7701 53.2488 30.3696 55.1569 30.3696C56.9074 30.3696 58.4694 30.6789 59.8413 31.2974C61.2164 31.9159 62.352 32.8111 63.2465 33.9816L59.4087 37.408C58.2917 35.9979 56.9769 35.2928 55.4659 35.2928C54.1928 35.2928 53.1685 35.701 52.3944 36.5174C51.6235 37.3338 51.2388 38.4316 51.2388 39.8078C51.2388 41.1855 51.6235 42.2817 52.3944 43.0981C53.1685 43.9146 54.1928 44.3228 55.4659 44.3228C56.9769 44.3228 58.2917 43.6177 59.4087 42.2075L63.2465 45.6401C62.352 46.8075 61.2164 47.7028 59.8413 48.3244C58.4694 48.9429 56.9074 49.2521 55.1569 49.2521Z" fill="white"/>
<path d="M77.2926 45.6896H70.439L69.2277 48.8377H63.0415L70.9272 30.7778H76.9094L84.7951 48.8377H78.5039L77.2926 45.6896ZM75.6178 41.3045L73.8689 36.7648L72.1137 41.3045H75.6178Z" fill="white"/>
<path d="M85.7734 30.7778H91.8546V44.1187H99.9998V48.8377H85.7734V30.7778Z" fill="white"/>
<mask id="mask0_72_1478" style="mask-type:luminance" maskUnits="userSpaceOnUse" x="79" y="10" width="16" height="16">
<path d="M79.3018 10.6211H94.5787V25.9086H79.3018V10.6211Z" fill="white"/>
</mask>
<g mask="url(#mask0_72_1478)">
<mask id="mask1_72_1478" style="mask-type:luminance" maskUnits="userSpaceOnUse" x="79" y="10" width="16" height="16">
<path d="M86.9402 10.6211C82.7224 10.6211 79.3018 14.0429 79.3018 18.2641C79.3018 22.4868 82.7224 25.9086 86.9402 25.9086C91.1581 25.9086 94.5787 22.4868 94.5787 18.2641C94.5787 14.0429 91.1581 10.6211 86.9402 10.6211Z" fill="white"/>
</mask>
<g mask="url(#mask1_72_1478)">
<path d="M79.3018 10.6211H94.5787V25.9086H79.3018V10.6211Z" fill="white"/>
</g>
</g>
<mask id="mask2_72_1478" style="mask-type:luminance" maskUnits="userSpaceOnUse" x="82" y="13" width="10" height="11">
<path d="M82.0181 13.3379H91.8072V23.1348H82.0181V13.3379Z" fill="white"/>
</mask>
<g mask="url(#mask2_72_1478)">
<path fill-rule="evenodd" clip-rule="evenodd" d="M85.312 13.3379C84.8284 13.3379 84.436 13.7368 84.436 14.2146V15.7577H82.8941C82.4105 15.7577 82.0181 16.1582 82.0181 16.6391V19.8892C82.0181 20.3701 82.4136 20.7675 82.8941 20.7675H84.436V22.3091C84.436 22.79 84.8315 23.1858 85.312 23.1858H88.5642C89.0432 23.1858 89.4402 22.793 89.4402 22.3091V20.7675H90.9822C91.4626 20.7675 91.8582 20.3701 91.8582 19.8892V16.6391C91.8582 16.1582 91.4657 15.7577 90.9822 15.7577H89.4402V14.2146C89.4402 13.7337 89.0447 13.3379 88.5642 13.3379H85.312ZM85.312 13.9486H88.5642C88.7064 13.9486 88.83 14.0739 88.83 14.2146V16.0639C88.83 16.1474 88.8593 16.2201 88.9196 16.2788C88.9783 16.3391 89.0509 16.3685 89.1359 16.3685H90.9822C91.1305 16.3685 91.2479 16.4875 91.2479 16.6391V19.8892C91.2479 20.0408 91.1336 20.1552 90.9822 20.1552H89.1359C89.0509 20.1552 88.9783 20.1861 88.9196 20.2449C88.8593 20.3052 88.83 20.3763 88.83 20.4613V22.3091C88.83 22.4575 88.7095 22.575 88.5642 22.575H85.312C85.1606 22.575 85.0463 22.4606 85.0463 22.3091V20.4613C85.0463 20.3763 85.0169 20.3052 84.9567 20.2449C84.8964 20.1861 84.8253 20.1552 84.7404 20.1552H82.8941C82.7427 20.1552 82.6283 20.0408 82.6283 19.8892V16.6391C82.6283 16.4875 82.7458 16.3685 82.8941 16.3685H84.7404C84.8253 16.3685 84.8964 16.3391 84.9567 16.2788C85.0169 16.2201 85.0463 16.1474 85.0463 16.0639V14.2146C85.0463 14.0708 85.1637 13.9486 85.312 13.9486Z" fill="white"/>
</g>
<path fill-rule="evenodd" clip-rule="evenodd" d="M85.8619 16.6283C85.4787 16.6376 85.1481 16.8185 84.9272 17.0752C84.4946 17.5792 84.4127 18.3431 84.6769 18.9878C84.6908 19.0219 84.7047 19.0512 84.7186 19.0791C85.0183 19.7269 85.7893 20.4475 86.724 21.3195C86.86 21.4355 87.0284 21.4324 87.152 21.3195C88.0913 20.4428 88.8654 19.7208 89.162 19.0713C89.1806 19.0296 89.1945 19.0002 89.2084 18.9646C89.4617 18.3245 89.3737 17.573 88.9442 17.0752C88.7232 16.8185 88.3972 16.6376 88.0141 16.6283C87.6819 16.6206 87.3188 16.7319 86.9388 16.9685C86.5571 16.7319 86.1941 16.6206 85.8619 16.6283ZM85.8773 17.2391C86.0828 17.2344 86.3656 17.3164 86.7163 17.556C86.8801 17.6736 86.9944 17.6627 87.152 17.5591C87.5073 17.3164 87.7931 17.2344 87.9986 17.2391C88.2118 17.2437 88.3586 17.3272 88.4838 17.4725C88.7294 17.7586 88.8113 18.3338 88.6321 18.7667C88.629 18.7714 88.6259 18.776 88.6244 18.7822C88.6228 18.7837 88.6213 18.7868 88.6197 18.7884C88.4668 19.1471 87.7947 19.8707 86.9388 20.6825C86.0906 19.8785 85.42 19.1657 85.2578 18.8038C85.2532 18.793 85.2516 18.7868 85.2485 18.7822C85.06 18.3477 85.1435 17.7617 85.3938 17.4725C85.5174 17.3272 85.6641 17.2437 85.8773 17.2391Z" fill="white"/>
<mask id="mask3_72_1478" style="mask-type:luminance" maskUnits="userSpaceOnUse" x="0" y="0" width="42" height="57">
<path d="M0 0H41.8262V57H0V0Z" fill="white"/>
</mask>
<g mask="url(#mask3_72_1478)">
<path d="M55.1982 16.0064H41.321V2.1167C41.321 0.940023 40.3693 -0.0124512 39.1936 -0.0124512H18.1491C16.9749 -0.0124512 16.0232 0.940023 16.0232 2.1167V16.0064H2.14447C0.970274 16.0064 0.0185547 16.9589 0.0185547 18.134V39.1952C0.0185547 40.3703 0.970274 41.3243 2.14447 41.3243H16.0232V55.2125C16.0232 56.3892 16.9749 57.3416 18.1491 57.3416H39.1951C40.3693 57.3416 41.321 56.3892 41.321 55.2125V41.3243H55.1982C56.374 41.3243 57.3257 40.3703 57.3257 39.1952V18.134C57.3257 16.9589 56.374 16.0064 55.1982 16.0064ZM53.0723 37.066H39.1936C38.0194 37.066 37.0661 38.02 37.0661 39.1952V53.0849H20.2766V39.1952C20.2766 38.02 19.3249 37.066 18.1491 37.066H4.27194V20.2632H18.1491C19.3249 20.2632 20.2766 19.3107 20.2766 18.134V4.2443H37.0676V18.134C37.0676 19.3107 38.0209 20.2632 39.1951 20.2632H53.0723V37.066Z" fill="white"/>
</g>
<path d="M48.6246 50.7407V55.2866H48.1487V53.1899H45.3059V55.2866H44.8301V50.7407H45.3059V52.7694H48.1487V50.7407H48.6246Z" fill="white"/>
<path d="M53.3124 54.8722V55.2866H50.105V50.7407H53.2197V51.1551H50.5808V52.7756H52.9354V53.1838H50.5808V54.8722H53.3124Z" fill="white"/>
<path d="M57.2945 54.0744H54.7607L54.2169 55.2866H53.7163L55.7928 50.7407H56.2686L58.3451 55.2866H57.8384L57.2945 54.0744ZM57.1153 53.6847L56.0276 51.2417L54.9399 53.6847H57.1153Z" fill="white"/>
<path d="M59.0977 50.7407H59.5735V54.8722H62.1197V55.2866H59.0977V50.7407Z" fill="white"/>
<path d="M63.8033 51.1551H62.2026V50.7407H65.8797V51.1551H64.2791V55.2866H63.8033V51.1551Z" fill="white"/>
<path d="M70.4386 50.7407V55.2866H69.9627V53.1899H67.1199V55.2866H66.644V50.7407H67.1199V52.7694H69.9627V50.7407H70.4386Z" fill="white"/>
<path d="M75.5904 55.3237C75.1408 55.3237 74.7345 55.2248 74.3729 55.0269C74.0099 54.8289 73.7256 54.5553 73.5201 54.2043C73.3177 53.8502 73.2173 53.4528 73.2173 53.0106C73.2173 52.5745 73.3177 52.1803 73.5201 51.8293C73.7256 51.4752 74.0099 51.1984 74.3729 51.0005C74.7391 50.8026 75.147 50.7036 75.5966 50.7036C75.9334 50.7036 76.2455 50.7593 76.5298 50.8706C76.814 50.9819 77.0566 51.1474 77.259 51.3654L76.95 51.6685C76.5947 51.3097 76.1482 51.1304 75.6089 51.1304C75.2505 51.1304 74.923 51.2139 74.6263 51.3778C74.3328 51.5432 74.1026 51.7674 73.9342 52.0519C73.7689 52.3364 73.687 52.6565 73.687 53.0106C73.687 53.3693 73.7689 53.6909 73.9342 53.9754C74.1026 54.2599 74.3328 54.4857 74.6263 54.6496C74.923 54.815 75.2505 54.897 75.6089 54.897C76.1528 54.897 76.5993 54.7161 76.95 54.3527L77.259 54.6558C77.0566 54.8753 76.811 55.0423 76.5236 55.1567C76.2393 55.2681 75.9272 55.3237 75.5904 55.3237Z" fill="white"/>
<path d="M81.4916 54.8722V55.2866H78.2842V50.7407H81.3989V51.1551H78.76V52.7756H81.1146V53.1838H78.76V54.8722H81.4916Z" fill="white"/>
<path d="M86.4195 50.7407V55.2866H86.024L83.1009 51.6004V55.2866H82.625V50.7407H83.0205L85.9437 54.4269V50.7407H86.4195Z" fill="white"/>
<path d="M88.7837 51.1551H87.1831V50.7407H90.8602V51.1551H89.2596V55.2866H88.7837V51.1551Z" fill="white"/>
<path d="M94.8314 54.8722V55.2866H91.624V50.7407H94.7387V51.1551H92.0999V52.7756H94.4545V53.1838H92.0999V54.8722H94.8314Z" fill="white"/>
<path d="M99.0672 55.2866L98.029 53.827C97.9085 53.8394 97.7879 53.8455 97.6643 53.8455H96.4407V55.2866H95.9648V50.7407H97.6643C98.2453 50.7407 98.698 50.8799 99.0239 51.1551C99.353 51.4319 99.5183 51.8138 99.5183 52.2993C99.5183 52.6549 99.4272 52.9549 99.2464 53.2023C99.0688 53.4466 98.8138 53.6213 98.4801 53.728L99.5925 55.2866H99.0672ZM97.652 53.4373C98.1 53.4373 98.443 53.3384 98.6779 53.1405C98.9158 52.9395 99.0363 52.658 99.0363 52.2993C99.0363 51.9329 98.9158 51.6499 98.6779 51.452C98.443 51.2541 98.1 51.1551 97.652 51.1551H96.4407V53.4373H97.652Z" fill="white"/>
</svg>
