<svg xmlns="http://www.w3.org/2000/svg" xmlns:xlink="http://www.w3.org/1999/xlink" width="500" zoomAndPan="magnify" viewBox="0 0 375 374.999991" height="500" preserveAspectRatio="xMidYMid meet" version="1.0"><defs><g/><clipPath id="bdf63b40c5"><path d="M 257.542969 142.234375 L 296.167969 142.234375 L 296.167969 180.855469 L 257.542969 180.855469 Z M 257.542969 142.234375 " clip-rule="nonzero"/></clipPath><clipPath id="483ea4ca49"><path d="M 276.855469 142.234375 C 266.191406 142.234375 257.542969 150.878906 257.542969 161.542969 C 257.542969 172.210938 266.191406 180.855469 276.855469 180.855469 C 287.519531 180.855469 296.167969 172.210938 296.167969 161.542969 C 296.167969 150.878906 287.519531 142.234375 276.855469 142.234375 Z M 276.855469 142.234375 " clip-rule="nonzero"/></clipPath><clipPath id="a43129f82e"><path d="M 264.410156 149.097656 L 289.160156 149.097656 L 289.160156 173.847656 L 264.410156 173.847656 Z M 264.410156 149.097656 " clip-rule="nonzero"/></clipPath><clipPath id="67eff1ce18"><path d="M 57.042969 115.402344 L 162.792969 115.402344 L 162.792969 259.402344 L 57.042969 259.402344 Z M 57.042969 115.402344 " clip-rule="nonzero"/></clipPath></defs><g fill="#2859bd" fill-opacity="1"><g transform="translate(146.377099, 183.5958)"><g><path d="M 44.453125 0 L 44.3125 -20.796875 L 34.40625 -4.109375 L 27.640625 -4.109375 L 17.734375 -20.078125 L 17.734375 0 L 3.71875 0 L 3.71875 -45.625 L 16.359375 -45.625 L 31.21875 -21.3125 L 45.6875 -45.625 L 58.328125 -45.625 L 58.453125 0 Z M 44.453125 0 "/></g></g></g><g fill="#2859bd" fill-opacity="1"><g transform="translate(208.542834, 183.5958)"><g><path d="M 41.640625 -11.59375 L 41.640625 0 L 3.71875 0 L 3.71875 -45.625 L 40.796875 -45.625 L 40.796875 -34.015625 L 18.828125 -34.015625 L 18.828125 -28.671875 L 38.125 -28.671875 L 38.125 -17.59375 L 18.828125 -17.59375 L 18.828125 -11.59375 Z M 41.640625 -11.59375 "/></g></g></g><g fill="#2859bd" fill-opacity="1"><g transform="translate(252.397699, 183.5958)"><g><path d="M 3.71875 -45.625 L 26.203125 -45.625 C 31.285156 -45.625 35.769531 -44.695312 39.65625 -42.84375 C 43.539062 -41 46.554688 -38.359375 48.703125 -34.921875 C 50.859375 -31.492188 51.9375 -27.457031 51.9375 -22.8125 C 51.9375 -18.164062 50.859375 -14.125 48.703125 -10.6875 C 46.554688 -7.257812 43.539062 -4.617188 39.65625 -2.765625 C 35.769531 -0.921875 31.285156 0 26.203125 0 L 3.71875 0 Z M 25.546875 -11.984375 C 28.847656 -11.984375 31.488281 -12.925781 33.46875 -14.8125 C 35.445312 -16.707031 36.4375 -19.375 36.4375 -22.8125 C 36.4375 -26.238281 35.445312 -28.894531 33.46875 -30.78125 C 31.488281 -32.675781 28.847656 -33.625 25.546875 -33.625 L 19.09375 -33.625 L 19.09375 -11.984375 Z M 25.546875 -11.984375 "/></g></g></g><g fill="#2859bd" fill-opacity="1"><g transform="translate(146.377099, 238.781372)"><g><path d="M 3.71875 -45.625 L 19.09375 -45.625 L 19.09375 0 L 3.71875 0 Z M 3.71875 -45.625 "/></g></g></g><g fill="#2859bd" fill-opacity="1"><g transform="translate(169.184234, 238.781372)"><g><path d="M 27.3125 1.046875 C 22.488281 1.046875 18.140625 0.0351562 14.265625 -1.984375 C 10.398438 -4.003906 7.367188 -6.828125 5.171875 -10.453125 C 2.984375 -14.085938 1.890625 -18.207031 1.890625 -22.8125 C 1.890625 -27.414062 2.984375 -31.53125 5.171875 -35.15625 C 7.367188 -38.789062 10.398438 -41.613281 14.265625 -43.625 C 18.140625 -45.644531 22.488281 -46.65625 27.3125 -46.65625 C 31.738281 -46.65625 35.6875 -45.875 39.15625 -44.3125 C 42.632812 -42.75 45.503906 -40.488281 47.765625 -37.53125 L 38.0625 -28.875 C 35.238281 -32.4375 31.914062 -34.21875 28.09375 -34.21875 C 24.875 -34.21875 22.285156 -33.1875 20.328125 -31.125 C 18.378906 -29.0625 17.40625 -26.289062 17.40625 -22.8125 C 17.40625 -19.332031 18.378906 -16.5625 20.328125 -14.5 C 22.285156 -12.4375 24.875 -11.40625 28.09375 -11.40625 C 31.914062 -11.40625 35.238281 -13.1875 38.0625 -16.75 L 47.765625 -8.078125 C 45.503906 -5.128906 42.632812 -2.867188 39.15625 -1.296875 C 35.6875 0.265625 31.738281 1.046875 27.3125 1.046875 Z M 27.3125 1.046875 "/></g></g></g><g fill="#2859bd" fill-opacity="1"><g transform="translate(217.66569, 238.781372)"><g><path d="M 34.796875 -7.953125 L 17.46875 -7.953125 L 14.40625 0 L -1.234375 0 L 18.703125 -45.625 L 33.828125 -45.625 L 53.765625 0 L 37.859375 0 Z M 30.5625 -19.03125 L 26.140625 -30.5 L 21.703125 -19.03125 Z M 30.5625 -19.03125 "/></g></g></g><g fill="#2859bd" fill-opacity="1"><g transform="translate(270.187255, 238.781372)"><g><path d="M 3.71875 -45.625 L 19.09375 -45.625 L 19.09375 -11.921875 L 39.6875 -11.921875 L 39.6875 0 L 3.71875 0 Z M 3.71875 -45.625 "/></g></g></g><g clip-path="url(#bdf63b40c5)"><g clip-path="url(#483ea4ca49)"><path fill="#2859bd" d="M 257.542969 142.234375 L 296.167969 142.234375 L 296.167969 180.855469 L 257.542969 180.855469 Z M 257.542969 142.234375 " fill-opacity="1" fill-rule="nonzero"/></g></g><g clip-path="url(#a43129f82e)"><path fill="#ffffff" d="M 272.738281 149.097656 C 271.515625 149.097656 270.523438 150.105469 270.523438 151.3125 L 270.523438 155.210938 L 266.625 155.210938 C 265.402344 155.210938 264.410156 156.222656 264.410156 157.4375 L 264.410156 165.648438 C 264.410156 166.863281 265.410156 167.867188 266.625 167.867188 L 270.523438 167.867188 L 270.523438 171.761719 C 270.523438 172.976562 271.523438 173.976562 272.738281 173.976562 L 280.960938 173.976562 C 282.171875 173.976562 283.175781 172.984375 283.175781 171.761719 L 283.175781 167.867188 L 287.074219 167.867188 C 288.289062 167.867188 289.289062 166.863281 289.289062 165.648438 L 289.289062 157.4375 C 289.289062 156.222656 288.296875 155.210938 287.074219 155.210938 L 283.175781 155.210938 L 283.175781 151.3125 C 283.175781 150.097656 282.175781 149.097656 280.960938 149.097656 Z M 272.738281 150.640625 L 280.960938 150.640625 C 281.320312 150.640625 281.632812 150.957031 281.632812 151.3125 L 281.632812 155.984375 C 281.632812 156.195312 281.707031 156.378906 281.859375 156.527344 C 282.007812 156.679688 282.191406 156.753906 282.40625 156.753906 L 287.074219 156.753906 C 287.449219 156.753906 287.746094 157.054688 287.746094 157.4375 L 287.746094 165.648438 C 287.746094 166.03125 287.457031 166.320312 287.074219 166.320312 L 282.40625 166.320312 C 282.191406 166.320312 282.007812 166.398438 281.859375 166.546875 C 281.707031 166.699219 281.632812 166.878906 281.632812 167.09375 L 281.632812 171.761719 C 281.632812 172.136719 281.328125 172.433594 280.960938 172.433594 L 272.738281 172.433594 C 272.355469 172.433594 272.066406 172.144531 272.066406 171.761719 L 272.066406 167.09375 C 272.066406 166.878906 271.992188 166.699219 271.839844 166.546875 C 271.6875 166.398438 271.507812 166.320312 271.292969 166.320312 L 266.625 166.320312 C 266.242188 166.320312 265.953125 166.03125 265.953125 165.648438 L 265.953125 157.4375 C 265.953125 157.054688 266.25 156.753906 266.625 156.753906 L 271.292969 156.753906 C 271.507812 156.753906 271.6875 156.679688 271.839844 156.527344 C 271.992188 156.378906 272.066406 156.195312 272.066406 155.984375 L 272.066406 151.3125 C 272.066406 150.949219 272.363281 150.640625 272.738281 150.640625 Z M 272.738281 150.640625 " fill-opacity="1" fill-rule="evenodd"/></g><path fill="#ffffff" d="M 274.128906 157.410156 C 273.160156 157.433594 272.324219 157.890625 271.765625 158.539062 C 270.671875 159.8125 270.464844 161.742188 271.132812 163.371094 C 271.167969 163.457031 271.203125 163.53125 271.238281 163.601562 C 271.996094 165.238281 273.945312 167.058594 276.308594 169.261719 C 276.652344 169.554688 277.078125 169.546875 277.390625 169.261719 C 279.765625 167.046875 281.722656 165.222656 282.472656 163.582031 C 282.519531 163.476562 282.554688 163.402344 282.589844 163.3125 C 283.230469 161.695312 283.007812 159.796875 281.921875 158.539062 C 281.363281 157.890625 280.539062 157.433594 279.570312 157.410156 C 278.730469 157.390625 277.8125 157.671875 276.851562 158.269531 C 275.886719 157.671875 274.96875 157.390625 274.128906 157.410156 Z M 274.167969 158.953125 C 274.6875 158.941406 275.402344 159.148438 276.289062 159.753906 C 276.703125 160.050781 276.992188 160.023438 277.390625 159.761719 C 278.289062 159.148438 279.011719 158.941406 279.53125 158.953125 C 280.070312 158.964844 280.441406 159.175781 280.757812 159.542969 C 281.378906 160.265625 281.585938 161.71875 281.132812 162.8125 C 281.125 162.824219 281.117188 162.835938 281.113281 162.851562 C 281.109375 162.855469 281.105469 162.863281 281.101562 162.867188 C 280.714844 163.773438 279.015625 165.601562 276.851562 167.652344 C 274.707031 165.621094 273.011719 163.820312 272.601562 162.90625 C 272.589844 162.878906 272.585938 162.863281 272.578125 162.851562 C 272.101562 161.753906 272.3125 160.273438 272.945312 159.542969 C 273.257812 159.175781 273.628906 158.964844 274.167969 158.953125 Z M 274.167969 158.953125 " fill-opacity="1" fill-rule="evenodd"/><g clip-path="url(#67eff1ce18)"><path fill="#2859bd" d="M 196.601562 155.839844 L 161.515625 155.839844 L 161.515625 120.75 C 161.515625 117.777344 159.109375 115.371094 156.136719 115.371094 L 102.929688 115.371094 C 99.960938 115.371094 97.554688 117.777344 97.554688 120.75 L 97.554688 155.839844 L 62.464844 155.839844 C 59.496094 155.839844 57.089844 158.246094 57.089844 161.214844 L 57.089844 214.421875 C 57.089844 217.390625 59.496094 219.800781 62.464844 219.800781 L 97.554688 219.800781 L 97.554688 254.886719 C 97.554688 257.859375 99.960938 260.265625 102.929688 260.265625 L 156.140625 260.265625 C 159.109375 260.265625 161.515625 257.859375 161.515625 254.886719 L 161.515625 219.800781 L 196.601562 219.800781 C 199.574219 219.800781 201.980469 217.390625 201.980469 214.421875 L 201.980469 161.214844 C 201.980469 158.246094 199.574219 155.839844 196.601562 155.839844 Z M 191.226562 209.042969 L 156.136719 209.042969 C 153.167969 209.042969 150.757812 211.453125 150.757812 214.421875 L 150.757812 249.511719 L 108.308594 249.511719 L 108.308594 214.421875 C 108.308594 211.453125 105.902344 209.042969 102.929688 209.042969 L 67.84375 209.042969 L 67.84375 166.59375 L 102.929688 166.59375 C 105.902344 166.59375 108.308594 164.1875 108.308594 161.214844 L 108.308594 126.125 L 150.761719 126.125 L 150.761719 161.214844 C 150.761719 164.1875 153.171875 166.59375 156.140625 166.59375 L 191.226562 166.59375 Z M 191.226562 209.042969 " fill-opacity="1" fill-rule="nonzero"/></g><g fill="#2859bd" fill-opacity="1"><g transform="translate(168.512249, 255.073797)"><g><path d="M 11.46875 -11.484375 L 11.46875 0 L 10.265625 0 L 10.265625 -5.296875 L 3.078125 -5.296875 L 3.078125 0 L 1.875 0 L 1.875 -11.484375 L 3.078125 -11.484375 L 3.078125 -6.359375 L 10.265625 -6.359375 L 10.265625 -11.484375 Z M 11.46875 -11.484375 "/></g></g></g><g fill="#2859bd" fill-opacity="1"><g transform="translate(181.849275, 255.073797)"><g><path d="M 9.984375 -1.046875 L 9.984375 0 L 1.875 0 L 1.875 -11.484375 L 9.75 -11.484375 L 9.75 -10.4375 L 3.078125 -10.4375 L 3.078125 -6.34375 L 9.03125 -6.34375 L 9.03125 -5.3125 L 3.078125 -5.3125 L 3.078125 -1.046875 Z M 9.984375 -1.046875 "/></g></g></g><g fill="#2859bd" fill-opacity="1"><g transform="translate(192.824032, 255.073797)"><g><path d="M 9.078125 -3.0625 L 2.671875 -3.0625 L 1.296875 0 L 0.03125 0 L 5.28125 -11.484375 L 6.484375 -11.484375 L 11.734375 0 L 10.453125 0 Z M 8.625 -4.046875 L 5.875 -10.21875 L 3.125 -4.046875 Z M 8.625 -4.046875 "/></g></g></g><g fill="#2859bd" fill-opacity="1"><g transform="translate(204.586211, 255.073797)"><g><path d="M 1.875 -11.484375 L 3.078125 -11.484375 L 3.078125 -1.046875 L 9.515625 -1.046875 L 9.515625 0 L 1.875 0 Z M 1.875 -11.484375 "/></g></g></g><g fill="#2859bd" fill-opacity="1"><g transform="translate(214.248588, 255.073797)"><g><path d="M 4.109375 -10.4375 L 0.0625 -10.4375 L 0.0625 -11.484375 L 9.359375 -11.484375 L 9.359375 -10.4375 L 5.3125 -10.4375 L 5.3125 0 L 4.109375 0 Z M 4.109375 -10.4375 "/></g></g></g><g fill="#2859bd" fill-opacity="1"><g transform="translate(223.664896, 255.073797)"><g><path d="M 11.46875 -11.484375 L 11.46875 0 L 10.265625 0 L 10.265625 -5.296875 L 3.078125 -5.296875 L 3.078125 0 L 1.875 0 L 1.875 -11.484375 L 3.078125 -11.484375 L 3.078125 -6.359375 L 10.265625 -6.359375 L 10.265625 -11.484375 Z M 11.46875 -11.484375 "/></g></g></g><g fill="#2859bd" fill-opacity="1"><g transform="translate(241.29996, 255.073797)"><g><path d="M 6.859375 0.09375 C 5.722656 0.09375 4.695312 -0.15625 3.78125 -0.65625 C 2.863281 -1.15625 2.144531 -1.847656 1.625 -2.734375 C 1.113281 -3.628906 0.859375 -4.632812 0.859375 -5.75 C 0.859375 -6.851562 1.113281 -7.847656 1.625 -8.734375 C 2.144531 -9.628906 2.863281 -10.328125 3.78125 -10.828125 C 4.707031 -11.328125 5.738281 -11.578125 6.875 -11.578125 C 7.726562 -11.578125 8.515625 -11.4375 9.234375 -11.15625 C 9.953125 -10.875 10.566406 -10.457031 11.078125 -9.90625 L 10.296875 -9.140625 C 9.398438 -10.046875 8.269531 -10.5 6.90625 -10.5 C 6 -10.5 5.171875 -10.289062 4.421875 -9.875 C 3.679688 -9.457031 3.097656 -8.890625 2.671875 -8.171875 C 2.253906 -7.453125 2.046875 -6.644531 2.046875 -5.75 C 2.046875 -4.84375 2.253906 -4.03125 2.671875 -3.3125 C 3.097656 -2.59375 3.679688 -2.023438 4.421875 -1.609375 C 5.171875 -1.191406 6 -0.984375 6.90625 -0.984375 C 8.28125 -0.984375 9.410156 -1.441406 10.296875 -2.359375 L 11.078125 -1.59375 C 10.566406 -1.039062 9.945312 -0.617188 9.21875 -0.328125 C 8.5 -0.046875 7.710938 0.09375 6.859375 0.09375 Z M 6.859375 0.09375 "/></g></g></g><g fill="#2859bd" fill-opacity="1"><g transform="translate(253.094946, 255.073797)"><g><path d="M 9.984375 -1.046875 L 9.984375 0 L 1.875 0 L 1.875 -11.484375 L 9.75 -11.484375 L 9.75 -10.4375 L 3.078125 -10.4375 L 3.078125 -6.34375 L 9.03125 -6.34375 L 9.03125 -5.3125 L 3.078125 -5.3125 L 3.078125 -1.046875 Z M 9.984375 -1.046875 "/></g></g></g><g fill="#2859bd" fill-opacity="1"><g transform="translate(264.069703, 255.073797)"><g><path d="M 11.46875 -11.484375 L 11.46875 0 L 10.46875 0 L 3.078125 -9.3125 L 3.078125 0 L 1.875 0 L 1.875 -11.484375 L 2.875 -11.484375 L 10.265625 -2.171875 L 10.265625 -11.484375 Z M 11.46875 -11.484375 "/></g></g></g><g fill="#2859bd" fill-opacity="1"><g transform="translate(277.406729, 255.073797)"><g><path d="M 4.109375 -10.4375 L 0.0625 -10.4375 L 0.0625 -11.484375 L 9.359375 -11.484375 L 9.359375 -10.4375 L 5.3125 -10.4375 L 5.3125 0 L 4.109375 0 Z M 4.109375 -10.4375 "/></g></g></g><g fill="#2859bd" fill-opacity="1"><g transform="translate(286.823036, 255.073797)"><g><path d="M 9.984375 -1.046875 L 9.984375 0 L 1.875 0 L 1.875 -11.484375 L 9.75 -11.484375 L 9.75 -10.4375 L 3.078125 -10.4375 L 3.078125 -6.34375 L 9.03125 -6.34375 L 9.03125 -5.3125 L 3.078125 -5.3125 L 3.078125 -1.046875 Z M 9.984375 -1.046875 "/></g></g></g><g fill="#2859bd" fill-opacity="1"><g transform="translate(297.797793, 255.073797)"><g><path d="M 9.71875 0 L 7.09375 -3.6875 C 6.789062 -3.65625 6.484375 -3.640625 6.171875 -3.640625 L 3.078125 -3.640625 L 3.078125 0 L 1.875 0 L 1.875 -11.484375 L 6.171875 -11.484375 C 7.640625 -11.484375 8.785156 -11.132812 9.609375 -10.4375 C 10.441406 -9.738281 10.859375 -8.773438 10.859375 -7.546875 C 10.859375 -6.648438 10.628906 -5.890625 10.171875 -5.265625 C 9.722656 -4.648438 9.078125 -4.207031 8.234375 -3.9375 L 11.046875 0 Z M 6.140625 -4.671875 C 7.273438 -4.671875 8.140625 -4.921875 8.734375 -5.421875 C 9.335938 -5.929688 9.640625 -6.640625 9.640625 -7.546875 C 9.640625 -8.472656 9.335938 -9.1875 8.734375 -9.6875 C 8.140625 -10.1875 7.273438 -10.4375 6.140625 -10.4375 L 3.078125 -10.4375 L 3.078125 -4.671875 Z M 6.140625 -4.671875 "/></g></g></g></svg>